<svg xmlns:dc="http://purl.org/dc/elements/1.1/" xmlns:cc="http://creativecommons.org/ns#" xmlns:rdf="http://www.w3.org/1999/02/22-rdf-syntax-ns#" xmlns:svg="http://www.w3.org/2000/svg" xmlns="http://www.w3.org/2000/svg" xmlns:sodipodi="http://sodipodi.sourceforge.net/DTD/sodipodi-0.dtd" xmlns:inkscape="http://www.inkscape.org/namespaces/inkscape" version="1.1" x="0px" y="0px" viewBox="0 0 100 125"><g transform="translate(0,-952.36218)"><path style="color:#000000;enable-background:accumulate;" d="m 49.999999,968.36218 c -11.04571,0 -20,7.3661 -20,19.4375 0,4.3506 2.78705,10.9551 4.4375,14.56252 l 15.5625,34 15.5625,-34 c 1.65043,-3.60742 4.437502,-10.21192 4.437502,-14.56252 0,-12.0714 -8.954312,-19.4375 -20.000002,-19.4375 z m 0,10 c 5.52285,0 10,4.4773 10,10 0,5.5228 -4.47715,10 -10,10 -5.52284,0 -10,-4.4772 -10,-10 0,-5.5227 4.47716,-10 10,-10 z" fill="#000000" stroke="none" marker="none" visibility="visible" display="inline" overflow="visible"/></g></svg>